<svg width="15" height="14" viewBox="0 0 15 14" fill="none" xmlns="http://www.w3.org/2000/svg">
<path d="M0.907471 3.125C0.626221 3.125 0.407471 2.90625 0.407471 2.625V1.375C0.407471 1.125 0.626221 0.875 0.907471 0.875H13.9075C14.1575 0.875 14.4075 1.125 14.4075 1.375V2.625C14.4075 2.90625 14.1575 3.125 13.9075 3.125H0.907471ZM0.907471 8.125C0.626221 8.125 0.407471 7.90625 0.407471 7.625V6.375C0.407471 6.125 0.626221 5.875 0.907471 5.875H13.9075C14.1575 5.875 14.4075 6.125 14.4075 6.375V7.625C14.4075 7.90625 14.1575 8.125 13.9075 8.125H0.907471ZM0.907471 13.125C0.626221 13.125 0.407471 12.9062 0.407471 12.625V11.375C0.407471 11.125 0.626221 10.875 0.907471 10.875H13.9075C14.1575 10.875 14.4075 11.125 14.4075 11.375V12.625C14.4075 12.9062 14.1575 13.125 13.9075 13.125H0.907471Z" fill="#130F40"/>
</svg>
