<svg width="15" height="14" viewBox="0 0 15 14" fill="none" xmlns="http://www.w3.org/2000/svg">
<path d="M0.779999 6.94238V1.65723C0.779999 0.986914 1.32141 0.419727 2.0175 0.419727H7.27687C7.61203 0.419727 7.9214 0.574414 8.15344 0.806445L13.5933 6.24629C14.0831 6.73613 14.0831 7.53535 13.5933 7.99941L8.3339 13.2588C7.86984 13.7486 7.07062 13.7486 6.58078 13.2588L1.14094 7.81895C0.908905 7.58691 0.779999 7.27754 0.779999 6.94238ZM3.6675 2.06973C2.9714 2.06973 2.43 2.63691 2.43 3.30723C2.43 4.00332 2.9714 4.54473 3.6675 4.54473C4.33781 4.54473 4.905 4.00332 4.905 3.30723C4.905 2.63691 4.33781 2.06973 3.6675 2.06973Z" fill="#27AE60"/>
</svg>
