<svg width="19" height="23" viewBox="0 0 19 23" fill="none" xmlns="http://www.w3.org/2000/svg">
<path d="M9.48453 1.03748C9.5275 1.20935 10.215 5.07654 10.215 6.53748C10.215 8.81482 9.01187 10.4047 7.25015 11.0492L7.80875 21.2758C7.80875 21.8773 7.33609 22.35 6.7775 22.35H4.0275C3.42593 22.35 2.95328 21.8773 2.99625 21.2758L3.51187 11.0492C1.75015 10.4047 0.589996 8.81482 0.589996 6.53748C0.589996 5.07654 1.23453 1.20935 1.2775 1.03748C1.4064 0.135132 3.21109 0.135132 3.34 1.08044V7.13904C3.38297 7.26794 3.98453 7.26794 4.0275 7.13904C4.07047 6.06482 4.32828 1.16638 4.37125 1.03748C4.50015 0.135132 6.26187 0.135132 6.39078 1.03748C6.43375 1.16638 6.69156 6.06482 6.73453 7.13904C6.7775 7.26794 7.37906 7.26794 7.42203 7.13904V1.08044C7.55093 0.135132 9.35562 0.135132 9.48453 1.03748ZM14.6408 13.2836C7.89468 8.04138 13.8673 0.349976 17.4337 0.349976C17.9923 0.349976 18.465 0.822632 18.465 1.38123V21.3187C18.465 21.9203 17.9923 22.35 17.4337 22.35H15.0275C14.4259 22.35 13.9103 21.8344 13.9962 21.2328L14.6408 13.2836Z" fill="#27AE60"/>
</svg>
