<svg width="19" height="18" viewBox="0 0 19 18" fill="none" xmlns="http://www.w3.org/2000/svg">
<path d="M18.3044 15.4281C18.6137 15.7719 18.6137 16.2875 18.27 16.5969L17.3075 17.5594C16.9981 17.9031 16.4825 17.9031 16.1387 17.5594L12.7356 14.1562C12.5637 13.9844 12.495 13.7781 12.495 13.5719V12.9875C11.2575 13.95 9.745 14.5 8.095 14.5C4.14187 14.5 0.944995 11.3031 0.944995 7.34998C0.944995 3.43123 4.14187 0.199975 8.095 0.199975C12.0137 0.199975 15.245 3.43123 15.245 7.34998C15.245 9.03435 14.6606 10.5469 13.7325 11.75H14.2825C14.4887 11.75 14.695 11.8531 14.8669 11.9906L18.3044 15.4281ZM8.095 11.75C10.5012 11.75 12.495 9.7906 12.495 7.34998C12.495 4.94373 10.5012 2.94998 8.095 2.94998C5.65437 2.94998 3.69499 4.94373 3.69499 7.34998C3.69499 9.7906 5.65437 11.75 8.095 11.75Z" fill="#130F40"/>
</svg>
