<svg width="21" height="18" viewBox="0 0 21 18" fill="none" xmlns="http://www.w3.org/2000/svg">
<path d="M18.4376 10.5812C18.3345 10.9594 17.9907 11.2 17.6126 11.2H7.54075L7.78137 12.3H16.9939C17.5095 12.3 17.922 12.8156 17.7845 13.3312L17.6126 14.1562C18.2657 14.4656 18.7126 15.1187 18.7126 15.875C18.7126 16.9406 17.8189 17.8 16.7876 17.8C15.722 17.8 14.8626 16.9406 14.8626 15.875C14.8626 15.3594 15.0689 14.8781 15.4126 14.5H8.22825C8.572 14.8781 8.81262 15.3594 8.81262 15.875C8.81262 16.9406 7.91887 17.8 6.88762 17.8C5.822 17.8 4.96262 16.9406 4.96262 15.875C4.96262 15.1875 5.34075 14.5687 5.92512 14.225L3.4845 2.39998H1.11262C0.631372 2.39998 0.287621 2.05623 0.287621 1.57498V1.02498C0.287621 0.5781 0.631372 0.199975 1.11262 0.199975H4.61887C4.997 0.199975 5.34075 0.50935 5.44387 0.887475L5.75325 2.39998H19.2282C19.7782 2.39998 20.1564 2.9156 20.0532 3.43123L18.4376 10.5812Z" fill="#130F40"/>
</svg>
